# xmcd
#
# Track frame offsets: 
#        150
#        24040
#        42955
#        59375
#        70927
#        81837
#        103265
#        121072
#        145147
#        157745
#
# Disc length: 2407 seconds
#
# Revision: 1
# Processed by: cddbd v1.5.2PL0 Copyright (c) Steve Scherf et al.
# Submitted via: ExactAudioCopy v0.99pb4
#
DISCID=7809650a
DTITLE=Mahalia Jackson - Songs for Christmas
DYEAR=1900
DGENRE=Chrismas
TTITLE0=Sweet Little Jesus Boy
TTITLE1=A Star Stood Still
TTITLE2=Hark! The Harald Angels Sing
TTITLE3=Christmas Comes To Us All Once A Year
TTITLE4=Joy To The World
TTITLE5=O Come, All Ye Faithful
TTITLE6=O Little Town Of Bethlehem
TTITLE7=What Can I Give
TTITLE8=Go Tell It On The Mountain
TTITLE9=Silent Night, Holy Night
EXTD=
EXTT0=
EXTT1=
EXTT2=
EXTT3=
EXTT4=
EXTT5=
EXTT6=
EXTT7=
EXTT8=
EXTT9=
PLAYORDER=
